<svg xmlns="http://www.w3.org/2000/svg" viewBox="0 0 32 32" width="32" height="32">
  <!-- Background circle for warmth -->
  <circle cx="16" cy="16" r="15" fill="#FF6B6B" stroke="#FF4757" stroke-width="1"/>
  <!-- House base -->
  <rect x="8" y="18" width="16" height="10" fill="#FFF" rx="1"/>
  <!-- Roof -->
  <polygon points="6,18 16,10 26,18" fill="#4ECDC4" stroke="#45B7B8" stroke-width="0.5"/>
  <!-- Door -->
  <rect x="13" y="22" width="6" height="6" fill="#FF9F43" rx="0.5"/>
  <circle cx="17.5" cy="25" r="0.5" fill="#FFF"/>
  <!-- Windows -->
  <rect x="9.5" y="20" width="2.5" height="2.5" fill="#74B9FF" rx="0.3"/>
  <rect x="20" y="20" width="2.5" height="2.5" fill="#74B9FF" rx="0.3"/>
  <!-- Window crosses -->
  <line x1="10.75" y1="20" x2="10.75" y2="22.5" stroke="#FFF" stroke-width="0.3"/>
  <line x1="9.5" y1="21.25" x2="12" y2="21.25" stroke="#FFF" stroke-width="0.3"/>
  <line x1="21.25" y1="20" x2="21.25" y2="22.5" stroke="#FFF" stroke-width="0.3"/>
  <line x1="20" y1="21.25" x2="22.5" y2="21.25" stroke="#FFF" stroke-width="0.3"/>
  <!-- Chimney -->
  <rect x="20" y="12" width="2" height="6" fill="#95A5A6"/>
  <!-- Smoke/warmth -->
  <circle cx="21.5" cy="11" r="0.8" fill="#FFE4E1" opacity="0.8"/>
  <circle cx="20.8" cy="9.5" r="0.6" fill="#FFE4E1" opacity="0.6"/>
  <circle cx="22.2" cy="9.8" r="0.5" fill="#FFE4E1" opacity="0.7"/>
</svg>
